<?xml version="1.0" standalone="no"?>
<!DOCTYPE svg PUBLIC "-//W3C//DTD SVG 20010904//EN"
 "http://www.w3.org/TR/2001/REC-SVG-20010904/DTD/svg10.dtd">
<svg version="1.0" xmlns="http://www.w3.org/2000/svg"
 width="500.000000pt" height="500.000000pt" viewBox="0 0 500.000000 500.000000"
 preserveAspectRatio="xMidYMid meet">
<metadata>
Created by potrace 1.16, written by Peter Selinger 2001-2019
</metadata>
<g transform="translate(0.000000,500.000000) scale(0.100000,-0.100000)"
fill="#000000" stroke="none">
<path d="M0 2500 l0 -2500 2500 0 2500 0 0 2500 0 2500 -2500 0 -2500 0 0
-2500z m4228 1734 l732 -726 0 -1001 0 -1002 -733 -733 -732 -732 -998 0 -997
0 -730 727 -730 726 0 1006 0 1006 727 727 728 728 1001 0 1001 0 731 -726z"/>
<path d="M807 4182 l-707 -707 0 -978 0 -978 712 -709 713 -710 970 0 970 0
713 713 712 712 0 972 0 973 -712 710 -713 710 -975 0 -975 0 -708 -708z m168
-797 c148 -28 241 -111 300 -270 28 -72 53 -232 39 -244 -5 -5 -51 -11 -103
-12 l-94 -4 -14 60 c-19 85 -54 139 -106 164 -49 24 -128 28 -190 9 -87 -26
-140 -122 -116 -211 21 -80 66 -116 227 -183 153 -65 220 -103 277 -159 101
-98 152 -268 142 -465 -12 -227 -100 -386 -252 -457 -56 -26 -69 -28 -185 -28
-115 0 -130 2 -182 27 -103 48 -177 141 -225 281 -27 79 -57 257 -45 268 11
10 183 40 193 33 5 -3 9 -16 9 -29 0 -38 40 -155 67 -196 37 -56 95 -90 163
-96 147 -14 252 86 253 238 0 70 -10 98 -52 142 -32 36 -54 47 -211 111 -150
62 -229 111 -271 168 -195 265 -135 710 113 823 98 45 154 51 263 30z m2119
-16 c208 -77 346 -314 386 -661 16 -134 8 -441 -14 -553 -64 -323 -211 -522
-418 -566 -72 -16 -191 -6 -263 21 -91 35 -187 136 -249 261 -78 160 -105 288
-113 540 -10 309 24 508 117 695 35 69 68 119 105 157 120 123 295 164 449
106z m-784 -144 l0 -145 -160 0 c-121 0 -160 -3 -161 -12 0 -7 0 -333 1 -723
1 -391 -2 -718 -5 -727 -9 -24 -202 -24 -209 1 -3 9 -5 322 -5 696 0 374 0
699 0 723 l-1 42 -160 0 -160 0 0 145 0 145 430 0 430 0 0 -145z m1923 134
c88 -14 132 -35 180 -88 85 -95 127 -232 129 -421 1 -181 -18 -278 -77 -385
-79 -142 -148 -174 -395 -183 l-165 -7 -5 -335 -5 -335 -100 0 -100 0 -3 883
-2 882 236 0 c129 0 268 -5 307 -11z m-2918 -2236 c21 -60 48 -136 61 -171
l24 -63 -42 3 c-37 3 -42 6 -53 38 -11 34 -13 35 -72 38 l-61 3 -9 -38 c-8
-36 -11 -38 -51 -41 l-42 -3 55 158 c31 87 58 164 60 171 3 7 22 12 48 12 l44
0 38 -107z m322 83 c55 -28 78 -72 78 -148 0 -52 -5 -73 -21 -94 -42 -57 -69
-69 -165 -72 l-89 -4 0 172 0 173 83 -5 c47 -3 97 -13 114 -22z m221 -148 l2
-168 -40 0 -40 0 0 163 c0 90 3 167 7 171 4 4 21 6 38 4 l30 -3 3 -167z m291
161 c33 -12 38 -25 19 -52 -11 -14 -18 -15 -50 -5 -51 15 -84 -1 -105 -49 -18
-43 -13 -102 12 -140 16 -24 21 -25 81 -20 l64 5 0 -29 c0 -33 -25 -44 -102
-43 -53 0 -90 21 -119 67 -28 45 -24 172 7 214 41 56 120 77 193 52z m300 0
c26 -9 30 -15 25 -33 -10 -33 -16 -35 -61 -24 -35 10 -45 9 -67 -6 -15 -9 -32
-29 -37 -44 -15 -38 -6 -118 17 -143 17 -19 27 -21 82 -16 l62 5 0 -28 c0 -19
-6 -30 -17 -34 -117 -32 -197 5 -223 103 -40 151 78 269 219 220z m161 -159
l0 -170 -35 0 -35 0 0 170 0 170 35 0 35 0 0 -170z m310 152 c53 -26 82 -90
78 -169 -6 -102 -59 -156 -155 -157 -113 -1 -170 67 -161 194 7 96 63 150 158
150 25 0 61 -8 80 -18z m305 -103 l70 -120 3 121 3 121 32 -3 32 -3 3 -167 2
-168 -49 0 -50 0 -68 120 -68 119 -3 -119 -3 -120 -29 0 -30 0 0 170 0 170 43
0 43 0 69 -121z m415 86 l0 -35 -60 0 -60 0 0 -35 0 -35 55 0 c54 0 55 0 55
-30 0 -30 -1 -30 -55 -30 l-55 0 0 -40 0 -40 60 0 60 0 0 -30 0 -30 -95 0 -95
0 0 170 0 170 95 0 95 0 0 -35z m235 25 c23 -9 26 -14 20 -38 -4 -15 -7 -28
-8 -29 -1 -1 -24 4 -51 10 -43 10 -50 9 -62 -7 -18 -25 -9 -40 41 -66 81 -42
106 -81 88 -136 -19 -58 -100 -84 -185 -61 -24 6 -28 13 -28 43 0 30 3 35 18
29 35 -15 102 -18 117 -5 22 19 2 46 -55 75 -121 61 -95 195 37 195 23 0 54
-5 68 -10z"/>
<path d="M2871 3087 c-47 -15 -124 -95 -155 -161 -104 -219 -98 -706 11 -894
56 -98 144 -162 222 -162 126 0 238 116 285 295 29 111 41 309 28 457 -18 198
-54 310 -129 397 -62 73 -164 99 -262 68z"/>
<path d="M3908 3075 c-5 -5 -8 -118 -8 -253 l0 -244 149 4 c169 3 180 7 236
87 27 39 30 51 34 138 2 75 -1 104 -15 137 -21 49 -58 92 -97 112 -31 17 -287
32 -299 19z"/>
<path d="M1510 1055 l0 -105 36 0 c56 0 94 44 94 108 0 70 -27 102 -86 102
l-44 0 0 -105z"/>
<path d="M2785 1145 c-34 -33 -36 -128 -4 -169 29 -37 89 -37 119 2 19 23 21
37 18 91 -3 52 -8 67 -27 82 -33 27 -77 24 -106 -6z"/>
</g>
</svg>
